/* XPM */
static char *saranghae[] = {
/* columns rows colors chars-per-pixel */
"120 40 2 1 ",
"  c white",
". c black",
/* pixels */
"                                                                                                                        ",
"                                                                                                                        ",
"                                                                                                                        ",
"                                                                                                                        ",
"                                                                                                                        ",
"                                                                                                                        ",
"                               .....        .................    .....              .....        .....  ....            ",
"                               .....        .................    .....              .....        .....  ....            ",
"                .....          .....                     ....    .....              .....        .....  ....            ",
"                .....          .....                     ....    .....        .................  .....  ....            ",
"                .....          .....                     ....    .....        .................  .....  ....            ",
"                .....          .....                     ....    .....                           .....  ....            ",
"                .....          .....                     ....    .....                           .....  ....            ",
"                .....          .....        .................    ...........      .........      .....  ....            ",
"                .....          .....        .................    ...........      .........      .....  ....            ",
"                .....          .....        ....                 .....          .....    ....    .....  ....            ",
"                .....          .....        ....                 .....          .....    ....    .....  ....            ",
"                .....          .....        ....                 .....        ....         ....  .....  ....            ",
"                .....          .....        ....                 .....        ....         ....  .....  ....            ",
"                .....          ...........    ...............    .....        ....         ....  ...........            ",
"                .....          ...........    ...............    .....        ....         ....  ...........            ",
"                .....          .....                                          ....         ....  .....  ....            ",
"                .....          .....                                          ....         ....  .....  ....            ",
"                .....          .....              ...............             ....         ....  .....  ....            ",
"                .....          .....              ...............             ....         ....  .....  ....            ",
"                .....          .....              ...          ..             ....         ....  .....  ....            ",
"              .........        .....          .......          .......        ....         ....  .....  ....            ",
"              .........        .....          .......          .......        ....         ....  .....  ....            ",
"            .....    ....      .....          .....              .....          .....    ....    .....  ....            ",
"            .....    ....      .....          .....              .....          .....    ....    .....  ....            ",
"          ....         ....    .....          .......          .......            .........      .....  ....            ",
"          ....         ....    .....          .......          .......            .........      .....  ....            ",
"                               .....              ...............                                .....  ....            ",
"                               .....              ...............                                .....  ....            ",
"                                                                                                                        ",
"                                                                                                                        ",
"                                                                                                                        ",
"                                                                                                                        ",
"                                                                                                                        ",
"                                                                                                                        "
};
